<svg xmlns="http://www.w3.org/2000/svg" viewBox="0 0 32 32" width="24" height="24"><g id="sahkyo"><path d="M10.1,31.05l-2.77.86a1.91,1.91,0,0,1-1.63-.22,18.83,18.83,0,0,1-3-2.42,19.3,19.3,0,0,1-2.42-3,1.91,1.91,0,0,1-.22-1.63,37.48,37.48,0,0,1,2.64-6.33.6.6,0,0,1,1.1.1,37.2,37.2,0,0,0,6.5,11.84A.48.48,0,0,1,10.1,31.05Z"/><path class="cls-1" d="M28.51,17a37.09,37.09,0,0,1,3.4,7.7,1.91,1.91,0,0,1-.22,1.63,19.3,19.3,0,0,1-2.42,3,18.83,18.83,0,0,1-3,2.42,1.91,1.91,0,0,1-1.63.22,37.12,37.12,0,0,1-8.67-4,37.26,37.26,0,0,1-6.64-5.29A37.74,37.74,0,0,1,4.07,16c-.56-.9-1.07-1.81-1.55-2.74A36.86,36.86,0,0,1,.09,7.34,1.94,1.94,0,0,1,.31,5.7,19.84,19.84,0,0,1,2.07,3.42q.31-.34.66-.69A18.83,18.83,0,0,1,5.7.31,1.91,1.91,0,0,1,7.33.09,37.09,37.09,0,0,1,15,3.49a1.92,1.92,0,0,0,1.94,0,37.09,37.09,0,0,1,7.7-3.4A1.91,1.91,0,0,1,26.3.31,18.87,18.87,0,0,1,31.69,5.7a1.91,1.91,0,0,1,.22,1.63,37.09,37.09,0,0,1-3.4,7.7A1.92,1.92,0,0,0,28.51,17Z"/></g></svg>